<?xml version="1.0" encoding="utf-8"?>
<!-- Generator: Adobe Illustrator 16.0.0, SVG Export Plug-In . SVG Version: 6.00 Build 0)  -->
<!DOCTYPE svg PUBLIC "-//W3C//DTD SVG 1.1//EN" "http://www.w3.org/Graphics/SVG/1.1/DTD/svg11.dtd">
<svg version="1.1" id="Layer_1" xmlns="http://www.w3.org/2000/svg" xmlns:xlink="http://www.w3.org/1999/xlink" x="0px" y="0px"
	 width="43.867px" height="65px" viewBox="0 0 43.867 65" enable-background="new 0 0 43.867 65" xml:space="preserve">
<g id="Layer_2">
	<rect x="-0.003" y="-0.158" fill="#EC2227" width="43.874" height="65.158"/>
</g>
<g id="Layer_1_1_" xmlns:dc="http://purl.org/dc/elements/1.1/" xmlns:cc="http://creativecommons.org/ns#" xmlns:rdf="http://www.w3.org/1999/02/22-rdf-syntax-ns#" xmlns:svg="http://www.w3.org/2000/svg" xmlns:sodipodi="http://sodipodi.sourceforge.net/DTD/sodipodi-0.dtd" xmlns:inkscape="http://www.inkscape.org/namespaces/inkscape" sodipodi:docname="Adobe_1993.svg" inkscape:version="0.91 r13725">
	<g>
		<g id="g4156">
			<path id="path5" inkscape:connector-curvature="0" fill="#FFFFFF" d="M10.619,54.715l-0.35-2.129
				c-0.1-0.614-0.229-1.574-0.326-2.237H9.906c-0.103,0.668-0.246,1.655-0.351,2.242l-0.377,2.124H10.619z M8.989,56.103
				l-0.456,2.364H6.85l2.1-9.834h2.063l1.908,9.834h-1.692l-0.446-2.364H8.989z"/>
			<path id="path7" inkscape:connector-curvature="0" fill="#FFFFFF" d="M16.753,54.074c0-0.131,0-0.284-0.025-0.425
				c-0.067-0.485-0.319-0.922-0.725-0.922c-0.695,0-0.951,1.026-0.951,2.227c0,1.379,0.365,2.165,0.927,2.165
				c0.257,0,0.553-0.135,0.714-0.715c0.039-0.114,0.06-0.27,0.06-0.449V54.074z M18.481,48.373v8.055
				c0,0.638,0.032,1.424,0.057,2.037h-1.492l-0.098-0.819h-0.036c-0.25,0.506-0.796,0.935-1.448,0.935
				c-1.429,0-2.138-1.616-2.138-3.658c0-2.488,1.057-3.698,2.209-3.698c0.602,0,0.992,0.302,1.188,0.741h0.029v-3.592H18.481
				L18.481,48.373z"/>
			<path id="path9" inkscape:connector-curvature="0" fill="#FFFFFF" d="M22.08,57.223c0.659,0,0.822-1.275,0.822-2.331
				c0-1.003-0.163-2.31-0.851-2.31c-0.729,0-0.882,1.307-0.882,2.31c0,1.211,0.192,2.331,0.896,2.331H22.08z M22.047,58.58
				c-1.593,0-2.592-1.311-2.592-3.657c0-2.561,1.282-3.699,2.632-3.699c1.572,0,2.555,1.375,2.555,3.658
				c0,2.933-1.542,3.698-2.583,3.698H22.047z"/>
			<path id="path11" inkscape:connector-curvature="0" fill="#FFFFFF" d="M27.337,55.921c0,0.178,0.03,0.345,0.067,0.456
				c0.174,0.596,0.468,0.742,0.703,0.742c0.669,0,0.938-0.868,0.938-2.257c0-1.265-0.285-2.135-0.946-2.135
				c-0.327,0-0.604,0.364-0.699,0.757c-0.033,0.123-0.064,0.314-0.064,0.447L27.337,55.921L27.337,55.921z M25.609,48.373h1.728
				v3.712h0.027c0.342-0.549,0.794-0.861,1.453-0.861c1.303,0,1.957,1.519,1.957,3.505c0,2.509-0.976,3.852-2.24,3.852
				c-0.603,0-1.004-0.273-1.367-0.968H27.13l-0.096,0.853h-1.483c0.024-0.59,0.058-1.399,0.058-2.037V48.373L25.609,48.373z"/>
			<path id="path13" inkscape:connector-curvature="0" fill="#FFFFFF" d="M34.916,54.224c0.009-1.001-0.277-1.701-0.826-1.701
				c-0.625,0-0.892,0.938-0.91,1.701H34.916z M33.172,55.477c0.021,1.288,0.682,1.709,1.502,1.709c0.521,0,0.966-0.12,1.295-0.246
				l0.233,1.274c-0.458,0.202-1.166,0.329-1.844,0.329c-1.855,0-2.868-1.3-2.868-3.519c0-2.382,1.176-3.812,2.709-3.812
				c1.482,0,2.304,1.265,2.304,3.328c0,0.473-0.02,0.739-0.049,0.946L33.172,55.477L33.172,55.477z"/>
		</g>
		<g id="g4151">
			<polygon id="polygon15" fill="#FFFFFF" points="25.452,16.243 36.504,16.243 36.504,43.376 			"/>
			<polygon id="polygon17" fill="#FFFFFF" points="17.664,16.243 6.603,16.243 6.603,43.376 			"/>
			<polygon id="polygon19" fill="#FFFFFF" points="16.724,37.917 21.558,26.24 28.6,43.375 23.987,43.375 21.879,37.917 			"/>
		</g>
	</g>
</g>
</svg>
